<mxfile host="app.diagrams.net" modified="2024-10-14T09:39:36.559Z" agent="Mozilla/5.0 (Windows NT 10.0; Win64; x64) AppleWebKit/537.36 (KHTML, like Gecko) Chrome/129.0.0.0 Safari/537.36" version="24.6.4" etag="stkJfz7N6LTdeNgixDQS" type="github">
  <diagram name="Page-1" id="LxXnSpuWI3a58tZqL5XZ">
    <mxGraphModel>
      <root>
        <mxCell id="0" />
        <mxCell id="1" parent="0" />
      </root>
    </mxGraphModel>
  </diagram>
</mxfile>
